<svg xmlns="http://www.w3.org/2000/svg" viewBox="0 0 948 1056.88"><defs><style>.cls-1{fill:#1c8da0;}.cls-2{fill:#b2a637;}</style></defs><g id="ARCO"><path class="cls-1" d="M868,244.9c.26.82-.57,1.29-.94,1.87-6.34,10-16.23,17.64-27.07,23.47-11.67,6.28-25.34,10.9-39.74,14.08,12.64,23,23.95,48.23,22.85,84.49-.85.28-1.15-.89-1.41-1.26a142.28,142.28,0,0,0-52.57-44.74,128,128,0,0,0-38-12.36c-14.3-2.24-31.33-1.62-47.09,0-60.2,6.19-109.69,25.21-149.73,51.32,29.12-36.46,63.62-69.38,104.67-94.66,13.57-8.35,28.2-15.68,39.27-26.91-25.39,6.73-54.26,11.1-82.14,15.49a123.43,123.43,0,0,0-25.19,7.2c-31.34,12.06-54.27,32.5-74.31,55.54C524.77,301,554,283.74,596.82,281.35a635.23,635.23,0,0,0-63.37,48.81c-19.84,17.41-39.12,35.92-55.85,56.33-25.29,30.84-48.4,62.95-60.7,107.63-5,18.1,6.48,28.62,20,33.17-9.7,4.32-19,9.66-21.12,21.12-.77,4.11-.05,8,1.1,12.21,12.18,44.25,34.88,77.55,60.7,107.79,34.27,40.15,75.34,75,119.06,105.3-21.57-.83-39.3-6.57-55.39-13.3a243.87,243.87,0,0,1-44.58-23.94,190,190,0,0,0,32.85,31.92,181.74,181.74,0,0,0,41.15,23.78c15.79,6.48,34.72,8.62,53.51,11.57s36.93,6.65,54,11c-.74-1.77-2.48-2.92-3.91-4.07-10.55-8.54-23.55-15.24-35.36-22.69-27-17.05-51.17-37.24-73.22-59.29-11.16-11.16-21.6-22.87-31.76-35.2,0-.18.16-.09.16,0,40.35,25.69,89.89,44.71,149.88,51,15.64,1.64,32.7,2.35,47.09,0,42.8-7,69.86-30.69,92-58.36,1.07,36.18-10.25,61.31-22.85,84.33,28.53,7.2,54.66,17.63,67.9,39.58-6.36-.75-11.72.87-16.42,2.82-13.89,5.77-27.08,11.41-46.63,12-.48.85.73,1.31,1.1,1.72,16.17,17.66,25,43.57,27.22,75.25-1.17-.09-1.59-1.32-2.19-2-9.44-11.26-23.13-19.18-37.39-25.82-22.73-10.56-50.4-17.56-79.95-21.28-10.08-1.26-20.45-1.81-31-2.66-20.48-1.62-41.25-3.55-60.86-6.41-20.28-2.95-39.58-5.59-56.63-10.8s-31.31-13.3-44.75-22.68c-26.33-18.38-47-41.91-66.65-68.06,1.19,22.9,6.79,42.45,17.21,56.33.23.3.86.6.63,1.09-53.69-28.3-94.58-67.93-128.29-116.24a383.89,383.89,0,0,1-23.16-38,370.32,370.32,0,0,1-27.22-64.46c-1.31-4.17-2-8.31-3.44-11.89-1.38-3.4-3.65-6.4-5.63-9.54a119.22,119.22,0,0,0-28.95-32.08c12-8.52,21.25-19.51,29.1-32.07,2-3.17,4.32-6.3,5.64-9.7,1.41-3.65,2.06-7.61,3.44-11.73,12.66-37.73,29.61-72.37,50.38-102.32,33.54-48.39,74.77-87.72,128.13-116.25.2.54-.37.89-.63,1.25-10.05,13.86-16.1,33-17.21,56,19.55-25.62,40.55-49.36,66.81-67.74,13.4-9.38,27.68-17.6,44.59-22.84,8.61-2.67,18.15-4.3,27.85-6,28.24-4.8,58.92-8.7,90-11.11,51.84-4,99.85-12.54,132.51-36a86,86,0,0,0,15.65-13.92c.49-.59.84-2,2-1.73-1.83,33.27-12.54,58.49-28.63,77,19.64.48,33,6,47.09,11.89C856.5,244,861.79,245.84,868,244.9ZM789.1,807c10.5-.23,17.64-5,24.25-8.92-4-7.23-11.71-11.15-23-10.32-8.9.65-16.29,4.66-22.69,7.51C772,802.11,778.58,807.26,789.1,807ZM788,266.8c11.36,1.58,21.42-2,25.35-9.86-6.79-4.09-15.13-9.78-26.29-9.07-9.63.62-15.36,5.36-19.4,11.89C773.13,262.2,780.48,265.75,788,266.8Zm5.63,471.86c.09,0,.19-.12,0-.16-12.32,12.82-28.68,21.59-50.69,24.72a58.19,58.19,0,0,0,22.84,3.45C783.09,765.66,791.54,754.45,793.63,738.66Zm-1.09-423.52c.23.2.63.84,1.09.63-2.41-17.83-13.47-28.69-34.26-27.38-6.41.4-11.63,1.34-16.43,3.6a84.06,84.06,0,0,1,29.1,8.45C779.87,304.37,786.42,309.82,792.54,315.14Zm.31-112.49c0-.09,0-.18-.16-.15-19.15,12.18-45.7,18.33-72.75,23.15,5,3.93,11.95,6.79,19.87,8.14,8.61,1.46,17.29-.17,24.41-2.82,6.77-2.51,13.37-5.58,18.62-9.86S792.69,211.29,792.85,202.65ZM785,847.86c2.67,1.33,5.09,3,7.66,4.38-.81-14.3-11-20.16-21.43-25.34-6.37-3.15-13.57-6.13-21.43-6.57a43.45,43.45,0,0,0-19.4,3.28c-3.87,1.54-7.77,3.24-10.64,5.79C743.49,833.38,766.56,838.73,785,847.86ZM424.72,726.77c6.69-20.27,9.91-54.12-2.35-69.62-2-2.54-4.51-4.79-6.73-7.2s-4.51-5-6.72-7.35c-8.62-9.38-20-17.29-27.85-28-7.64-10.36-14.89-24.42-11.11-42.71,0-.09,0-.18-.16-.15-9.89,9.76-16.62,26.23-13,45,3.26,16.84,12.73,26.66,22.68,36.61s21.23,18.29,29.73,29.57S423.59,708.26,424.72,726.77Zm-2.35-329c12.39-15.66,9-49.67,2.19-69.62,0-.09,0-.18-.16-.16a76.76,76.76,0,0,1-15.33,44.59c-8.41,11.42-20.59,19.34-30,29.57-4.73,5.13-9.81,9.95-13.92,15.8a54.25,54.25,0,0,0-8.45,21.28,50.11,50.11,0,0,0,11.58,42.4c.39.45,1.08,1.54,1.88,1.25-4-17.85,3.23-32.2,10.79-42.55,3.87-5.3,8.69-9.87,13.61-14.4s9.91-9.13,14.4-13.61A169,169,0,0,0,422.37,397.75ZM361,544.66c2.12-8.89,9.12-12.89,15.49-17.52a29.37,29.37,0,0,1-16-17.06c-8,7.23-17.7,12.76-28.32,17.37C343.13,531.91,352.21,538.16,361,544.66Z"/><path class="cls-2" d="M804.32,486.4c0,.12.08.25.11.37A.7.7,0,0,0,804.32,486.4Zm0,0c-3.89-13.5-7.15-27.34-15.07-37s-17.68-17.73-24.87-27.54c18.3,9.89,36.61,18,51.63,30.2,14.73,11.93,27.4,27.22,35.35,46.47a99.2,99.2,0,0,1,7.36,33.63c1.29,27.25-7.27,47.17-16.27,65.09-2.21,4.38-4.59,8.65-7.36,13.14a45.54,45.54,0,0,0-3.59,6.57c-.94,2.24-2.37,6.15-1.41,8.14,1.55,3.23,9.38,1,12,.31,11.77-2.94,20.19-10,22.53-21.75-.33,13.19-9.61,21.57-20.65,25.82-5.94,2.28-15.91,4.08-19.24-1.57-3.78-6.41,1-16,3.75-21.43,9.3-18.49,18.62-38.05,18.62-65.4,0-18.76-4.54-33-10.95-45.06a102.71,102.71,0,0,0-25-30.51c4.79,14.42,8.07,31.49,10.32,49,2.34,18.11.8,37.57-4.69,51.95-1.86-21.48-3.31-42.42-10-58.67a97.69,97.69,0,0,0-29.41-39.27c13.35,17.63,23,36.81,22.53,66.49-.42,27.95-12.07,48.55-25.34,63.83A97.87,97.87,0,0,1,717.6,631c-12.59,2.18-27.73,1.34-42.4,1.57-11.29.17-22.45.52-32.86-.63-3.78-.42-7-1.94-11-1.72-2,.12-4,.79-5.94,1.09-14.39,2.29-32,.7-44-3-28.65-8.78-47.84-26.28-61-51.16A92.83,92.83,0,0,1,509.67,532c.35-18,4.47-32.79,10.95-45.22,12.84-24.59,32.39-42,61.18-50.85,12-3.67,29.12-5.48,44-3,2.1.36,4.07,1.13,6.41,1.1,2.85,0,5.62-1.17,8.61-1.57,8.92-1.18,19.13-.78,29.26-.78,13.36,0,26.84-.59,39.26.47,21.22,1.82,37.39,9.73,50.54,19.71,1.94,1.48,3.77,3.64,5.94,4.85,2,1.1,4.08,1.72,6,2.66,13.38,6.73,22.64,15.56,32.39,26.76A2.54,2.54,0,0,1,804.32,486.39Zm-19,61.24a90.88,90.88,0,0,0-2.82-42.71c-8.07-24.74-24-40.65-45.52-51.47a79.17,79.17,0,0,0-39.9-8.61c-10.66.51-19.91,2.27-28.16,5.48,11.08,8.82,21.56,19.24,28.94,32.54a101,101,0,0,1,.16,98.25,101.63,101.63,0,0,1-24.88,29.26c-1.41,1.16-3.13,2-4.22,3.6,12.12,4.74,27.59,6.56,42.09,4.69a86.12,86.12,0,0,0,35.51-13C766.06,593.27,780.65,574.28,785.34,547.63Zm-87.93-15.49c0-19.14-5.3-33.65-13-45.84s-17.21-22.22-29.73-29.1c-12.16,7.54-22.27,17-29.88,29.42-7.48,12.24-12.51,27.09-12.51,46a83.41,83.41,0,0,0,13,45.53,85.75,85.75,0,0,0,29.57,28.94,87.1,87.1,0,0,0,42.55-74.94ZM639.06,452c.49-.39,1.54-1,1.41-1.88-3.38-.27-5.77-3.45-9.39-2.34-19.13,5.84-33.7,15.41-45.06,29.41-11.08,13.66-19.4,31.25-19.4,55.23a84.64,84.64,0,0,0,19.56,55.07c9.55,11.73,22.49,21,38.48,26.75,2.4.87,4.77,2.22,7,2.35,3.92.23,5.24-2,9.08-2.66a19.62,19.62,0,0,0-4.07-3.6,94,94,0,0,1-11.89-11.27C610.7,583.28,598.66,561.76,599,532s11.61-51.08,25.81-67.12A110.34,110.34,0,0,1,639.06,452Zm-38.18-5.32c.76-.45,2-.75,2.35-1.72a91.83,91.83,0,0,0-33,9.54c-9,4.58-16.52,10.74-23.78,18C532.79,486.18,523,506,523,532.46c0,26.23,10.35,45.66,23.78,59.6,13.79,14.33,30.91,24.54,56.32,27.07-13.52-8.62-25.47-19.66-34.42-33.79C560.2,572,552.8,553.69,553.32,532c.54-22.2,6.38-39,15.49-53C577.24,466,587.62,454.59,600.88,446.72Z"/><path class="cls-1" d="M804.43,486.77c0-.12-.07-.25-.11-.37A.7.7,0,0,1,804.43,486.77Z"/><path class="cls-2" d="M794,936.89c8.13,8.13,14,18,13.76,33.32a44.29,44.29,0,0,1-4.85,18.62,58.14,58.14,0,0,1-9.54,13.92c-3.7,4.12-8.6,7.1-13.61,10a88.1,88.1,0,0,1-16,7.51c-11.72,4-27.9,5-41,1.4-11.82-3.25-21.49-9.44-30.35-16.74-8.63-7.08-16.51-15.61-19.72-27.22-4.24-15.39,3.17-26.57,11.58-33a25.54,25.54,0,0,1,18-5.32,37.47,37.47,0,0,1,17.67,5.79c6.13,3.71,15.81,9.71,14.87,20.49-.82,9.4-9.69,15.47-20,15.18-6.95-.19-11.88-3.34-17.21-6.26,1.34,9.4,6.81,14.19,12.67,19.24a58.1,58.1,0,0,0,20.34,11.58c8.53,2.71,19.81,3.1,27.85.63a43.67,43.67,0,0,0,19.4-12.52c5.28-5.72,10-11.46,11.74-20.18,2-10-2.25-18.18-7.2-23.78-9.87-11.17-24.43-18.14-39.74-23.94a258.57,258.57,0,0,0-50.38-13.45c-36.17-5.86-74.31-10.84-111.86-15.65-19-2.44-38-4.26-55.7-8a348,348,0,0,1-93.25-34.26,357.43,357.43,0,0,1-90.89-68.53c-5.22-5.43-9.89-11.33-15.18-16.74-31.51-32.15-65.83-61.42-100.44-90.74,18.6,21.23,32.37,48.79,43.65,78.07,5.67,14.73,10.36,30,15.8,45.06,5.38,14.85,11.37,29.48,16.9,43.8,5.78,15,11.72,28.32,20.49,40.37a99,99,0,0,0,31.92,28.79c10.82,6.07,32.75,14.66,47.4,5.63,6.22-3.83,9.6-11.56,6.42-21.44-2.41-7.48-6.45-13.58-15.18-15.17,1.06,6.11,1.42,13-1.56,17.52-2.77,4.17-9,5.64-15,2.51-5.06-2.63-5.82-7.1-6.73-14.24-.77-6.09-.72-13.33,2-17.84,6-9.84,23.37-4,30.67.16a37.45,37.45,0,0,1,17.83,23.94c3.43,13.59-2,25.37-8.91,31-7.65,6.26-19.74,9-33.48,8.3-26.07-1.24-43.78-12.49-57.42-26.13-14-14-24.6-31.46-33.8-49.75a311.14,311.14,0,0,1-12.83-29c-3.81-10-7.1-20.38-11.1-30.66A405.48,405.48,0,0,0,234.63,743a355.08,355.08,0,0,0-25-37.7c-3.2-4.18-6.5-8.22-9.86-11.89A234,234,0,0,1,208,745.23c1,19.21.57,39.3-3.6,55.39-4.05,15.61-11.67,28.58-23,37.08-8.82,6.62-18.76,11.28-34.57,9.85-31.58-2.85-48.64-21.37-53.2-51.78-1.33-8.86-1.45-18.64,1.57-26.45a30.12,30.12,0,0,1,14.08-16c5.89-3.13,16.5-5.84,24.25-2.35a12.81,12.81,0,0,1,7.35,7.67c1.29,3.73,1.48,8.71-.62,12.51-3.49,6.33-13.19,6.91-22.85,4.85-.69,14.53,4.59,24.4,13.77,29.57,4.68,2.64,11.53,4.84,17.52,3.91s9.63-4.67,12.52-9.23c10.93-17.19,8.08-53,3.91-75.88-6.52-35.72-22.25-65.3-39.42-91a257.29,257.29,0,0,0-16.27-21.91c-.74-.88-1.77-1.77-2-3,42.77,7.63,77,24.88,107.8,44.9s58,43.84,83.23,69.16c-16.88-34.68-34.95-68.3-57.26-97.94-7.45-9.91-14.92-19.54-23.94-27.7C181,564.07,131.9,545,79.9,527.45a600.66,600.66,0,0,0,74.31-29.1c23.42-10.93,45.17-23.63,63.21-40.21,9-8.24,16.39-18.05,23.78-28,22-29.61,40.63-62.89,57.26-97.79-.44-.11-1,.4-1.25.63-2.71,2.53-5.39,5.85-8.14,8.6a467.14,467.14,0,0,1-73.84,59.77c-30.73,20.21-65,37.41-107.64,45.21-.28-1.28,1-2.3,1.72-3.13a294.53,294.53,0,0,0,32.54-49.12c10-19.13,18.66-39.63,23.16-63.83,4.31-23.19,7-58.25-3.76-75.73-2.81-4.57-6.45-8.41-12.36-9.39s-12.91,1.28-17.52,3.92c-9.32,5.32-14.34,14.55-14.08,29.41,9.53-1.56,19.56-1.34,23.15,5,4.4,7.77-.37,17.31-6.57,20.33-7.61,3.72-18.5.66-24.25-2.34a29.11,29.11,0,0,1-14.08-16c-6.3-16.21-1-37.32,5.16-49.28,6.85-13.33,17.42-22.75,33-26.91,8-2.13,18.85-3.4,27.22-1.88a48.09,48.09,0,0,1,20.49,9.54c11.34,8.62,18.82,21.44,23,37.08,4.31,16.13,4.54,36.29,3.6,55.54a232.76,232.76,0,0,1-8.29,51.63c3.67-3.22,6.37-7.4,9.39-11.26,21.18-27.12,38.92-59.15,52.56-93.87,4-10.24,7.49-20.6,11.27-30.67,11.2-29.83,25.77-58,46.62-78.85,7-7,14.36-13.41,23.78-18.15,16.59-8.34,51.72-13.49,67.28-.15,6.87,5.88,12.12,17.39,8.91,31a37.69,37.69,0,0,1-18,23.94c-7,4.1-24.84,10.28-30.51.31-2.64-4.65-2.87-11.67-2-18,.93-6.94,2.07-11.74,6.57-14.24,5.65-3.13,12.47-1.41,15.18,2.66,3,4.53,2.84,11,1.25,17.37,8.92-1.36,13.15-7.57,15.49-15,2.92-9.29.13-17.37-6.42-21.43-14.5-9-36-.8-47.25,5.32C334.4,151,320.29,168,310.35,188.1c-3.34,6.77-5.93,14-8.92,21.44-5.73,14.27-11.55,28.93-17.05,43.8s-9.88,30.38-15.65,45.06c-11.44,29.19-24.72,56.78-43.49,77.92,23.34-19.41,45.83-39,68.06-59.46,11.05-10.15,22.43-20.13,32.54-31.13s20-22.46,31.13-32.54c22-19.85,47-38.17,74.79-52.73,28-14.63,58.24-27,93.24-34.1,17.65-3.62,36.6-5.74,55.7-8.14,18.81-2.37,37.83-4.77,56.32-7.35,37.31-5.2,75.51-9.44,105.77-21.59,15-6,30-12.9,39.73-24.1,4.88-5.62,9.14-13.83,7.05-23.93-1.74-8.37-6.65-14.38-11.74-20a43.62,43.62,0,0,0-19.56-12.36c-8-2.49-19.23-1.86-27.53.78a59.6,59.6,0,0,0-20.65,11.27c-5.78,4.89-11,10-12.52,19.24a11.55,11.55,0,0,0,3.76-1.88,29.11,29.11,0,0,1,13.45-4.22c9.93-.37,19.37,5.93,20,15.33.71,10.18-8.8,16.7-14.87,20.34-4.84,2.91-10.52,5.55-17.67,6a27.28,27.28,0,0,1-18.15-5.32c-8.36-6.08-15.7-18.35-11.27-33.17,3.54-11.86,11-19.79,19.87-27.22s18.4-13.34,30.35-16.74c12.92-3.69,29.39-2.58,41,1.4a86.24,86.24,0,0,1,15.81,7.67c5,3,9.75,5.89,13.45,10a57.67,57.67,0,0,1,9.54,14.08c2.55,5.31,4.81,11.44,4.85,18.62.17,30.27-21.8,41.19-42.55,51.63a221.37,221.37,0,0,1-33.64,13.3c-36.24,11.15-75.83,18-119.06,22.06-14.16,1.33-28.54,2.28-42.55,4.38C515,184.6,467.64,200.1,428.32,223c-19.85,11.56-36.28,26.27-52.1,42.09a451.32,451.32,0,0,0-43.34,50.69c-6.77,9.12-13.26,18.38-19.09,28-6,9.86-11,20.23-16.58,30.51a578.08,578.08,0,0,1-36,58.05c-6.56,9.22-13.37,18.1-20.65,26.44s-15.3,15.93-23.15,23.78-15.61,15.8-23.78,23.31-15.38,16-25.5,21.43a180.35,180.35,0,0,1,25.5,21.59c7.86,7.87,15.92,15.45,23.78,23.32s15.9,15.51,23.15,23.93c21.57,25.06,40,54.64,56.64,84.64,5.64,10.16,10.66,20.61,16.74,30.35a463,463,0,0,0,62.42,78.7c7.92,8.09,15.79,15.65,24.25,22.84s18,13.15,27.85,19.09c19.54,11.75,41.25,21.09,65.09,29.1a435.28,435.28,0,0,0,76.19,17.84c28.12,4.09,57.87,5.26,84.8,9.38,40.58,6.23,78.88,14.74,110.92,30.2C775.93,923.32,786.48,929.41,794,936.89Z"/></g></svg>